<svg width="190" height="44" viewBox="0 0 190 44" fill="none" xmlns="http://www.w3.org/2000/svg">
<path d="M48.8873 3.88032C46.3855 6.38538 45.0068 9.71089 45.0068 13.2516V32.9525H51.3555V7.63286C51.3555 6.85613 51.9911 6.22062 52.7746 6.22062H68.9395V0H58.2591C54.7182 0 51.3925 1.37862 48.8873 3.88032Z" fill="black"/>
<path d="M139.385 25.9719L139.365 1.18024V0.672499H133.009V4.13251C130.464 1.46269 126.909 0 122.908 0C113.176 0 105.839 7.33696 105.839 17.068C105.839 26.7991 113.176 34.1663 122.908 34.1663C128.382 34.1663 131.678 31.6512 133.5 29.4891H135.945C136.564 32.4851 138.605 33.6048 143.346 33.6048H143.682V27.3808H140.804C140.02 27.3808 139.382 26.7487 139.382 25.9719H139.385ZM133.672 17.068C133.672 23.5812 129.21 28.3055 123.063 28.3055C116.916 28.3055 112.453 23.5778 112.453 17.068C112.453 10.5582 116.916 5.85747 123.063 5.85747C129.21 5.85747 133.672 10.5717 133.672 17.068Z" fill="black"/>
<path d="M87.1155 5.25305C81.4978 5.25305 77.5199 8.89679 76.366 13.8766H97.865C96.863 9.20043 92.885 5.25305 87.1155 5.25305ZM87.1155 33.9171C77.0948 33.9171 70.0195 26.4778 70.0195 16.9434C70.0195 7.43929 77.0948 0 87.1155 0C97.8347 0 105.305 8.56278 103.999 19.1296H76.2142C77.0644 24.5952 81.1638 28.664 87.1155 28.664C91.4882 28.664 95.4054 26.7207 97.197 23.0163H103.604C101.57 29.4535 94.8588 33.9171 87.1155 33.9171Z" fill="black"/>
<path d="M147.936 8.19442L147.956 32.9861V43.434H154.312V30.0338C156.857 32.7037 160.412 34.1663 164.413 34.1663C174.145 34.1663 181.482 26.8294 181.482 17.0983C181.482 7.36724 174.145 2.28882e-05 164.413 2.28882e-05C158.939 2.28882e-05 155.643 2.51517 153.821 4.67725H151.376C150.757 1.68127 148.716 0.561554 143.975 0.561554H143.639V6.78554H146.517C147.301 6.78554 147.939 7.41769 147.939 8.19442H147.936ZM153.649 17.0983C153.649 10.5852 158.111 5.86085 164.258 5.86085C170.405 5.86085 174.868 10.5885 174.868 17.0983C174.868 23.6081 170.405 28.3089 164.258 28.3089C158.111 28.3089 153.649 23.5947 153.649 17.0983Z" fill="black"/>
<path d="M20.6475 20.6928C18.4568 22.9164 17.2495 25.8683 17.2495 29.0111V32.9109H22.8089V24.0237C22.8089 23.3343 23.3654 22.7701 24.0515 22.7701H32.7144V17.2485H28.8541C25.7534 17.2485 22.8412 18.4722 20.6475 20.6928Z" fill="black"/>
<path d="M12.2215 20.6928C14.4403 22.9164 15.6631 25.8683 15.6631 29.0111V32.9109H10.0325V24.0237C10.0325 23.3343 9.46881 22.7701 8.77393 22.7701H-5.43594e-05V17.2485H3.90977C7.05015 17.2485 9.99966 18.4722 12.2215 20.6928Z" fill="black"/>
<path d="M12.2186 12.221C9.9949 14.4398 7.0429 15.6625 3.89988 15.6625L-5.43594e-05 15.6625L-5.42923e-05 10.0321L8.88753 10.0321C9.57702 10.0321 10.1412 9.46848 10.1412 8.77363L10.1412 6.28767e-05L15.6631 6.29425e-05L15.6631 3.9097C15.6631 7.04993 14.4393 9.99931 12.2186 12.221Z" fill="black"/>
<path d="M20.6504 12.221C22.8459 14.4398 25.7606 15.6625 28.8638 15.6625L32.7144 15.6625L32.7144 10.0321L23.9393 10.0321C23.2585 10.0321 22.7015 9.46848 22.7015 8.77363L22.7015 6.28775e-05L17.2495 6.29425e-05L17.2495 3.9097C17.2495 7.04993 18.4578 9.99931 20.6504 12.221Z" fill="black"/>
<path d="M181.438 4.36168C181.438 3.5756 181.631 2.84956 182.015 2.18357C182.399 1.51212 182.916 0.982607 183.573 0.589564C184.229 0.196521 184.938 0 185.701 0C186.469 0 187.179 0.196521 187.835 0.589564C188.491 0.977148 189.009 1.50666 189.388 2.17811C189.772 2.84956 189.964 3.5756 189.964 4.36168C189.964 5.14231 189.772 5.86835 189.388 6.53979C189.004 7.21124 188.486 7.74076 187.83 8.1338C187.179 8.52684 186.469 8.72336 185.701 8.72336C184.938 8.72336 184.229 8.52684 183.573 8.1338C182.916 7.74076 182.399 7.21124 182.015 6.53979C181.631 5.86835 181.438 5.14231 181.438 4.36168ZM189.142 4.36168C189.142 3.72299 188.988 3.12796 188.678 2.58753C188.369 2.04164 187.947 1.61038 187.419 1.28831C186.891 0.96623 186.32 0.807921 185.701 0.807921C185.082 0.807921 184.506 0.96623 183.978 1.28831C183.45 1.61038 183.034 2.04164 182.724 2.58753C182.415 3.12796 182.26 3.72299 182.26 4.36168C182.26 5.00038 182.415 5.5954 182.724 6.14129C183.034 6.68719 183.45 7.11844 183.978 7.44052C184.506 7.75713 185.082 7.91544 185.701 7.91544C186.32 7.91544 186.891 7.75713 187.419 7.44052C187.947 7.11844 188.369 6.68719 188.678 6.14129C188.988 5.5954 189.142 5.00038 189.142 4.36168ZM184.239 6.39786V2.19449H186.085C186.934 2.19449 187.44 2.68033 187.44 3.35724C187.44 3.93043 187.083 4.30163 186.566 4.41627C187.126 4.41627 187.382 4.5855 187.382 5.06588V6.39786H186.566V5.32245C186.566 4.98946 186.4 4.83115 186.032 4.83115H185.056V6.39786H184.239ZM185.056 4.10511H185.824C186.331 4.10511 186.619 3.90313 186.619 3.50463C186.619 3.11705 186.373 2.97512 185.813 2.97512H185.056V4.10511Z" fill="black"/>
</svg>
